Coordinates
version=1
nRows=17
nColumns=33
inDegrees=yes

Units are S.I. units (second, meters, Newtons, ...)
Angles are in degrees.

endheader
time	ground_thorax_rot_x	ground_thorax_rot_y	ground_thorax_rot_z	ground_thorax_tx	ground_thorax_ty	ground_thorax_tz	clav_prot_r	clav_elev_r	scapula_abduction_r	scapula_elevation_r	scapula_upward_rot_r	scapula_winging_r	shoulder_elv_r	plane_of_elev_r	axial_rot_r	elbow_flexion_r	pro_sup_r	wrist_flex_r	wrist_dev_r	clav_prot_l	clav_elev_l	scapula_abduction_l	scapula_elevation_l	scapula_upward_rot_l	scapula_winging_l	shoulder_elv_l	plane_of_elev_l	axial_rot_l	elbow_flexion_l	pro_sup_l	wrist_flex_l	wrist_dev_l
      7.89000000	    -40.37153455	     -7.03001084	      7.09407141	   -154.64828385	    806.55833735	      9.31153777	     10.53533353	    -45.00000000	     44.94540853	    -45.00000000	    -34.02941225	   3506.45719299	   -105.29124390	    144.55481935	    179.99999979	   1089.93796736	     40.22179827	     22.15722601	     15.02377239	     17.83939077	     39.02474906	    -43.00455541	    -45.00000000	    -45.00000000	  -3521.57647418	    811.65271452	     20.20105878	   -179.99999979	   1788.58660534	    108.65912622	      7.55307947	     -9.66376782
      7.90000000	    -40.37803592	     -6.94064661	      7.02366447	   -148.82342205	    804.12050555	      9.27242510	     10.46638212	    -45.00000000	     45.00000000	    -45.00000000	    -32.69386192	   3506.84463038	   -105.75815688	    144.65775726	    179.99999979	   1089.61755888	     40.34827428	     21.97072413	     15.24167192	     18.00886384	     39.14582820	    -43.62389238	    -45.00000000	    -45.00000000	  -3521.82267520	    811.52526119	     20.28434778	   -179.99999979	   1788.91366974	    110.97192956	      7.56396463	     -9.77160026
      7.91000000	    -40.34663136	     -6.93573145	      7.00249294	   -143.01213326	    801.65931454	      9.23764538	     10.35706234	    -45.00000000	     45.00000000	    -45.00000000	    -31.52072724	   3507.31111534	   -106.12789675	    144.76022685	    179.99999979	   1089.21624855	     40.57778449	     21.76424365	     15.39766795	     18.25332672	     39.31460101	    -44.09298653	    -45.00000000	    -45.00000000	  -3522.11542911	    811.36111045	     20.41289156	   -179.99999979	   1789.33229891	    113.48887730	      7.58059322	     -9.86103485
      7.92000000	    -40.33079148	     -6.66766513	      6.72712514	   -137.27723864	    799.21348375	      9.20782503	      9.92734408	    -45.00000000	     45.00000000	    -45.00000000	    -29.90495140	   3507.78400111	   -106.55278236	    144.88831009	    179.99999979	   1088.75203167	     40.92083232	     21.63635977	     15.77114151	     18.60131298	     39.32142106	    -44.70228474	    -45.00000000	    -45.00000000	  -3522.52785132	    811.34607875	     20.41686065	   -179.99999979	   1789.76128587	    116.48266872	      7.61001164	    -10.05973096
      7.93000000	    -40.28224942	     -6.70529649	      6.80293343	   -131.66455507	    796.81465828	      9.18239497	      9.72257118	    -45.00000000	     45.00000000	    -45.00000000	    -28.98315845	   3508.18530115	   -106.96652554	    145.01240148	    179.99999979	   1088.47009931	     41.28754768	     21.48436673	     15.94752575	     18.71006278	     39.38344403	    -45.00000000	    -45.00000000	    -45.00000000	  -3522.93592648	    811.31742455	     20.54496790	   -179.99999979	   1790.26398383	    119.41453438	      7.64643285	    -10.15447600
      7.94000000	    -40.20475968	     -6.98595071	      7.02093046	   -126.22310593	    794.49303865	      9.16122828	      9.70500563	    -45.00000000	     45.00000000	    -45.00000000	    -28.39802874	   3508.68879328	   -107.31752333	    145.09586994	    179.99999979	   1088.01094096	     41.66817326	     21.27282119	     16.03815250	     18.77737309	     39.46615175	    -45.00000000	    -45.00000000	    -45.00000000	  -3523.35710476	    811.24630896	     20.69300462	   -179.99999979	   1790.75739979	    122.39766592	      7.69385588	    -10.26213493
      7.95000000	    -40.14324697	     -7.29308963	      7.31041202	   -120.98575645	    792.27568546	      9.14394327	      9.70136541	    -45.00000000	     45.00000000	    -45.00000000	    -28.02280631	   3509.06290855	   -107.74570947	    145.11180778	    179.99999979	   1087.61914669	     42.03343276	     21.06900724	     16.10856997	     18.76403846	     39.48255253	    -45.00000000	    -45.00000000	    -45.00000000	  -3523.76073981	    811.13796942	     20.84139318	   -179.99999979	   1791.27366915	    125.24108283	      7.74422091	    -10.32780859
      7.96000000	    -40.10973817	     -7.61758232	      7.56574073	   -115.98333166	    790.19279365	      9.13120676	      9.71127220	    -45.00000000	     45.00000000	    -45.00000000	    -28.98354815	   3509.35047408	   -107.88474720	    144.55291916	    179.99999979	   1087.33566961	     42.45586971	     20.89866343	     16.34442918	     17.69040927	     39.15404900	    -45.00000000	    -45.00000000	    -45.00000000	  -3524.02999463	    811.05935686	     21.13794316	   -179.99999979	   1791.80157155	    127.97189926	      7.96176842	     -9.92486277
      7.97000000	    -40.01580900	     -7.48540752	      7.42065560	   -111.23942599	    788.27032745	      9.12319716	      9.31723580	    -45.00000000	     45.00000000	    -45.00000000	    -26.45287121	   3509.92323973	   -108.54033933	    145.40110426	    179.99999979	   1086.72602706	     42.76363656	     20.72040828	     16.46173931	     18.74212674	     39.49403109	    -45.00000000	    -45.00000000	    -44.42736785	  -3524.85480475	    810.94114596	     20.77479654	   -179.99999979	   1792.27781815	    131.06980355	      7.86270112	    -10.58785627
      7.98000000	    -40.03887660	     -7.34120846	      7.19117100	   -106.77650340	    786.54027607	      9.12314822	      9.10835480	    -45.00000000	     45.00000000	    -45.00000000	    -25.64497594	   3510.37026282	   -108.95362823	    145.47397099	    179.99999979	   1086.32688144	     43.17997808	     20.54461164	     16.52831776	     18.76365607	     39.74902610	    -45.00000000	    -45.00000000	    -43.28932575	  -3525.24041347	    810.47400928	     20.68733243	   -179.99999979	   1792.86863300	    134.29401038	      7.97277424	    -10.64640201
      7.99000000	    -40.04429153	     -7.38970746	      7.21359944	   -102.61655020	    785.02893985	      9.13339557	      9.21101912	    -45.00000000	     45.00000000	    -45.00000000	    -25.47568202	   3510.72468000	   -109.36528798	    145.43402834	    179.99999979	   1086.02195303	     43.50005394	     20.36415338	     16.47892011	     18.75564596	     39.99847318	    -45.00000000	    -45.00000000	    -42.65989189	  -3525.39009486	    810.06345535	     20.90015063	   -179.99999979	   1793.49428035	    137.18176154	      8.06564274	    -10.64713180
      8.00000000	    -40.00627585	     -7.35329724	      7.19171150	    -98.77428476	    783.75657516	      9.15649652	      9.03351771	    -45.00000000	     45.00000000	    -45.00000000	    -24.77187859	   3511.11298925	   -109.69544855	    145.67196672	    179.99999979	   1085.69334059	     43.81070907	     20.20052920	     16.49724581	     18.81083280	     40.21987304	    -45.00000000	    -45.00000000	    -41.81817586	  -3525.83375918	    809.63601594	     20.69670253	   -179.99999979	   1793.96105539	    139.96304989	      8.12103677	    -10.82507067
      8.01000000	    -39.96378226	     -7.17207664	      6.99519240	    -95.25680698	    782.73505494	      9.19493039	      8.74317917	    -45.00000000	     45.00000000	    -45.00000000	    -23.90761424	   3511.46922858	   -109.95467830	    145.76224550	    179.99999979	   1085.16651503	     44.20944120	     20.02171573	     16.56831488	     18.89123573	     40.32659405	    -45.00000000	    -45.00000000	    -40.78693921	  -3526.31247425	    809.24272243	     20.41824508	   -179.99999979	   1794.40654703	    142.79713006	      8.14634949	    -11.08067955
      8.02000000	    -39.94580628	     -7.21144701	      7.05642107	    -92.07097478	    781.96836607	      9.25104459	      8.70474168	    -45.00000000	     45.00000000	    -45.00000000	    -23.71647096	   3511.77663891	   -110.21056828	    145.84610612	    179.99999979	   1084.91069142	     44.57823473	     19.89344759	     16.50010106	     18.87312645	     40.51555114	    -45.00000000	    -45.00000000	    -40.11714646	  -3526.54696311	    808.84830025	     20.36337487	   -179.99999979	   1794.90320946	    145.24746303	      8.16361764	    -11.21634101
      8.03000000	    -39.93571513	     -7.15410161	      7.03234255	    -89.23185223	    781.44793404	      9.32519992	      8.61128363	    -45.00000000	     45.00000000	    -45.00000000	    -23.42414603	   3512.03311824	   -110.47128938	    145.91991082	    179.99999979	   1084.67648336	     44.98079251	     19.79102915	     16.44172720	     18.89748150	     40.64796266	    -45.00000000	    -45.00000000	    -39.45132739	  -3526.80940552	    808.53141098	     20.28341448	   -179.99999979	   1795.27983012	    147.49374118	      8.14628410	    -11.41237370
      8.04000000	    -39.94367571	     -7.40540723	      7.31092441	    -86.74626187	    781.15437966	      9.41653405	      8.77998424	    -45.00000000	     45.00000000	    -45.00000000	    -24.64473809	   3512.26766451	   -110.51615776	    145.52998280	    179.99999979	   1084.67427592	     45.34029439	     19.69095144	     16.33585086	     18.42644140	     40.60933559	    -45.00000000	    -45.00000000	    -39.17812285	  -3526.77480606	    808.14301560	     20.41924295	   -179.99999979	   1795.63844544	    149.02909934	      8.26396753	    -11.28616127
      8.05000000	    -39.89441836	     -7.33332111	      7.30108887	    -84.62212004	    781.05937817	      9.52226204	      8.78117514	    -45.00000000	     45.00000000	    -45.00000000	    -24.35945071	   3512.52097506	   -110.62845457	    145.65108463	    179.99999979	   1084.50246800	     45.69966188	     19.62781422	     16.25146058	     18.55178539	     40.67611993	    -45.00000000	    -45.00000000	    -38.79772248	  -3527.08051686	    807.98621734	     20.31729283	   -179.99999979	   1795.86855345	    150.51057720	      8.17354977	    -11.51717753
